<?xml version="1.0" encoding="UTF-8" standalone="no"?>
<!-- Generated by IcoMoon.io -->

<svg
   xmlns:dc="http://purl.org/dc/elements/1.1/"
   xmlns:cc="http://creativecommons.org/ns#"
   xmlns:rdf="http://www.w3.org/1999/02/22-rdf-syntax-ns#"
   xmlns:svg="http://www.w3.org/2000/svg"
   xmlns="http://www.w3.org/2000/svg"
   xmlns:sodipodi="http://sodipodi.sourceforge.net/DTD/sodipodi-0.dtd"
   xmlns:inkscape="http://www.inkscape.org/namespaces/inkscape"
   version="1.1"
   width="1024"
   height="1024"
   viewBox="0 0 1024 1024"
   id="svg3791"
   inkscape:version="0.48.4 r9939"
   sodipodi:docname="009_financials_about_icon.svg">
  <metadata
     id="metadata3802">
    <rdf:RDF>
      <cc:Work
         rdf:about="">
        <dc:format>image/svg+xml</dc:format>
        <dc:type
           rdf:resource="http://purl.org/dc/dcmitype/StillImage" />
      </cc:Work>
    </rdf:RDF>
  </metadata>
  <defs
     id="defs3800" />
  <sodipodi:namedview
     pagecolor="#ffffff"
     bordercolor="#666666"
     borderopacity="1"
     objecttolerance="10"
     gridtolerance="10"
     guidetolerance="10"
     inkscape:pageopacity="0"
     inkscape:pageshadow="2"
     inkscape:window-width="1433"
     inkscape:window-height="799"
     id="namedview3798"
     showgrid="false"
     inkscape:zoom="0.23046875"
     inkscape:cx="-164.88136"
     inkscape:cy="512"
     inkscape:window-x="0"
     inkscape:window-y="0"
     inkscape:window-maximized="0"
     inkscape:current-layer="svg3791" />
  <g
     id="icomoon-ignore" />
  <path
     d="M729.632 141.919c-59.617 0-107.949 49.335-107.949 110.2 0 3.598 0.166 7.158 0.496 10.668-34.444-8.508-70.827-13.049-108.445-13.049-162.891 0-302.629 85.44-362.124 207.129v-1.778c-24.754-0.206-44.761-19.533-44.761-43.337s20.007-43.131 44.761-43.337v-0.349c0.131 0.001 0.265 0 0.397 0 24.938 0 45.158-19.405 45.158-43.337s-20.22-43.337-45.158-43.337c-2.338 0-4.639 0.179-6.881 0.508-0.035 0.005-0.065 0.027-0.099 0.032-71.567 3.491-128.494 60.273-128.494 129.821 0 62.936 46.615 115.439 108.512 127.44-2.683 15.966-4.069 32.287-4.069 48.893 0 93.932 44.433 178.937 116.187 240.243-23.308 20.215-38.078 50.37-38.078 84.039 0 60.865 48.332 110.2 107.949 110.2 58.56 0 106.211-47.589 107.883-106.962 31.573 7.050 64.687 10.826 98.818 10.826 33.749 0 66.508-3.675 97.76-10.572 0.944 60.033 48.889 108.39 107.916 108.39 59.617 0 107.949-49.335 107.949-110.2 0-33.908-15.013-64.236-38.608-84.452 37.598-31.781 67.802-70.024 88.199-112.645 9.079 2.911 18.619 4.477 28.484 4.477 59.617 0 107.949-56.746 107.949-126.741s-48.332-126.741-107.949-126.741c-7.947 0-15.7 1.039-23.158 2.953-20.53-47.905-53.294-90.705-95.014-125.598 30.23-19.531 50.319-53.958 50.319-93.183 0-60.865-48.332-110.2-107.949-110.2zM654.567 443.946c41.835 0 75.76 32.557 75.76 72.705s-33.925 72.673-75.76 72.673c-41.835 0-75.727-32.525-75.727-72.673s33.891-72.705 75.727-72.705z"
     id="path3794"
     style="fill:#c14f2f;fill-opacity:1" />
  <path
     d="M406.258 1.979c-7.543 0.042-15.167 0.665-22.827 1.905-81.711 13.229-135.714 91.602-121.249 173.888 6.1 34.698 23.467 64.916 47.639 87.277 13.042-5.762 26.524-10.9 40.361-15.398-25.634-17.054-44.685-44.576-50.551-77.943-11.092-63.099 29.557-121.169 90.25-130.996s119.023 32.211 130.115 95.31c6.069 34.524-3.395 67.586-23.125 92.040 14.721 0.255 29.223 1.18 43.504 2.794 16.565-29.441 23.415-64.806 17.071-100.898-13.109-74.572-78.269-128.386-151.189-127.979zM419.524 63.349l-27.723 4.477c-2.059 11.055-7.624 21.349-16.707 30.86s-17.81 16.393-26.235 20.637l5.227 29.78c15.999-8.111 29.251-18.811 39.766-32.035l20.544 116.963c11.287-1.865 22.732-3.305 34.34-4.318l-29.212-166.364z"
     id="path3796"
     style="fill:#c14f2f;fill-opacity:1" />
</svg>
