<?xml version="1.0" encoding="UTF-8" standalone="no"?>
<!-- Generated by IcoMoon.io -->

<svg
   xmlns:dc="http://purl.org/dc/elements/1.1/"
   xmlns:cc="http://creativecommons.org/ns#"
   xmlns:rdf="http://www.w3.org/1999/02/22-rdf-syntax-ns#"
   xmlns:svg="http://www.w3.org/2000/svg"
   xmlns="http://www.w3.org/2000/svg"
   xmlns:sodipodi="http://sodipodi.sourceforge.net/DTD/sodipodi-0.dtd"
   xmlns:inkscape="http://www.inkscape.org/namespaces/inkscape"
   version="1.1"
   width="1024"
   height="1024"
   viewBox="0 0 1024 1024"
   id="svg4325"
   inkscape:version="0.48.4 r9939"
   sodipodi:docname="540_documents_about_icon.svg">
  <metadata
     id="metadata4336">
    <rdf:RDF>
      <cc:Work
         rdf:about="">
        <dc:format>image/svg+xml</dc:format>
        <dc:type
           rdf:resource="http://purl.org/dc/dcmitype/StillImage" />
      </cc:Work>
    </rdf:RDF>
  </metadata>
  <defs
     id="defs4334" />
  <sodipodi:namedview
     pagecolor="#ffffff"
     bordercolor="#666666"
     borderopacity="1"
     objecttolerance="10"
     gridtolerance="10"
     guidetolerance="10"
     inkscape:pageopacity="0"
     inkscape:pageshadow="2"
     inkscape:window-width="1344"
     inkscape:window-height="773"
     id="namedview4332"
     showgrid="false"
     inkscape:zoom="0.23046875"
     inkscape:cx="-164.88136"
     inkscape:cy="512"
     inkscape:window-x="0"
     inkscape:window-y="0"
     inkscape:window-maximized="0"
     inkscape:current-layer="svg4325" />
  <g
     id="icomoon-ignore" />
  <path
     d="M162.016 35.3c-23.165 0.007-41.941 18.784-41.948 41.948v877.504c0.007 23.165 18.784 41.941 41.948 41.948h445.462c-0.56-1.212-1.084-2.453-1.573-3.711h0.029c-4.875-12.533-5.848-26.214-4.512-37.881l-0.148-0.029 2.316-22.355c-3.609-1.177-7.258-2.328-10.747-3.622-10.098-3.746-19.557-7.824-28.767-12.736-2.156-1.15-4.315-2.338-6.472-3.592h-353.637v-793.547h563.023v105.955c9.438 0.042 18.284 0.426 27.758 1.811 0.004 0 0.010 0 0.015 0s0.010 0 0.016 0c9.403 1.378 18.981 3.067 31.794 9.47 5.86 5.856 10.601 12.831 13.877 20.576-6.246-16.743 2.786-10.128 10.436-1.16v-178.63c-0.007-23.164-18.783-41.941-41.947-41.948h-646.921zM258.293 179.908v95.92h414.319c1.689-4.418 3.889-8.964 6.798-13.538 10.702-16.814 22.993-23.382 31.914-27.609 0.004 0 0.010 0 0.015 0s0.010 0 0.016 0c0.427-0.203 0.855-0.372 1.276-0.564v-54.209h-454.337zM258.293 324.723v95.891h283.011c8.723-15.509 19.614-29.8 32.33-42.245 18.66-18.263 41.051-32.363 65.372-42.483 0-0.004 0-0.010 0-0.015s0-0.010 0-0.016c8.348-3.472 16.996-6.31 25.769-8.905l0.208-2.227h-406.689zM258.293 470.489v95.891h262.497c-3.081-15.175-4.394-30.799-4.394-46.728 0-16.632 1.769-33.144 5.522-49.162h-263.625zM258.293 615.275v95.92h295.005c11.581-5.681 24.17-8.104 34.794-8.105 18.585 0 28.847 3.726 36.753 8.105h24.581c-9.531-4.303-18.933-8.959-28.173-13.983-18.687-10.16-35.853-22.938-50.855-37.941-12.915-12.914-23.669-27.848-32.152-43.997h-279.953zM258.293 759.883v95.891h254.6c-0.435-1.63-0.84-3.247-1.188-4.809-3.222-14.5-3.503-26.039-3.503-39.959 0-10.207 0.292-19.126 1.069-27.669 0.65-7.146 1.378-14.375 4.216-23.453h-255.194z"
     id="path4328"
     style="fill:#c14f2f;fill-opacity:1" />
  <path
     d="M911.392 730.766c0 22.333-3.96 42.458-11.88 60.376s-19.152 33.369-33.693 46.353c-14.542 12.984-32.071 23.371-52.585 31.162s-43.237 12.724-68.166 14.802l-8.18 83.357c-0.26 2.077-0.844 3.895-1.753 5.453s-2.597 2.856-5.064 3.895c-2.467 1.039-5.843 1.883-10.128 2.532s-9.673 0.974-16.165 0.974c-8.31 0-14.997-0.39-20.060-1.169s-9.024-1.883-11.88-3.311c-2.857-1.428-4.739-3.311-5.648-5.648s-1.104-4.934-0.584-7.79l8.18-79.072c-11.166-1.558-21.683-3.571-31.551-6.038s-18.827-5.194-26.877-8.18c-8.050-2.986-14.997-6.038-20.839-9.154s-10.257-6.167-13.244-9.154c-2.986-2.986-5.129-7.401-6.427-13.244s-1.948-14.477-1.948-25.903c0-8.829 0.26-16.1 0.779-21.813s1.428-10.127 2.727-13.244c1.298-3.116 2.921-5.258 4.869-6.427s4.22-1.753 6.817-1.753c3.376 0 8.31 1.948 14.802 5.843s14.802 8.18 24.929 12.854c10.127 4.674 22.397 8.959 36.81 12.854s31.356 5.843 50.832 5.843c30.382 0 52.974-5.648 67.776-16.944s22.202-26.292 22.203-44.99c0-12.464-3.181-22.722-9.543-30.772s-14.867-15.126-25.514-21.229c-10.647-6.102-22.657-11.556-36.031-16.36s-27.072-9.933-41.094-15.386c-14.023-5.453-27.721-11.815-41.094-19.086s-25.384-16.23-36.031-26.877c-10.647-10.647-19.151-23.566-25.514-38.757s-9.543-33.563-9.543-55.117c0-19.476 3.246-37.199 9.738-53.169s15.84-29.928 28.045-41.873c12.205-11.945 27.201-21.618 44.99-29.019 17.788-7.4 37.978-12.399 60.57-14.997l7.79-78.293c0.259-2.077 0.844-3.83 1.753-5.259 0.909-1.428 2.597-2.726 5.064-3.895s5.778-2.012 9.933-2.532c4.155-0.519 9.608-0.778 16.36-0.779 8.050 0.001 14.737 0.39 20.060 1.169s9.413 1.883 12.27 3.311c2.856 1.429 4.674 3.312 5.453 5.648 0.779 2.338 1.168 4.934 1.169 7.79l-7.79 73.619c7.271 1.039 14.931 2.467 22.982 4.285s15.58 3.961 22.592 6.427 13.373 5.064 19.086 7.79c5.713 2.727 9.673 5.194 11.88 7.401s3.895 4.415 5.064 6.622c1.168 2.208 2.077 4.934 2.727 8.18 0.649 3.247 1.103 7.142 1.363 11.686s0.389 9.803 0.39 15.776c0 8.050-0.195 14.672-0.584 19.865s-1.104 9.154-2.142 11.88c-1.039 2.727-2.208 4.545-3.506 5.453s-2.857 1.364-4.674 1.363c-3.376 0-8.31-1.687-14.802-5.064s-14.477-7.011-23.955-10.907c-9.479-3.895-20.385-7.53-32.72-10.907s-25.903-5.063-40.705-5.064c-13.504 0-25.059 1.299-34.667 3.895s-17.399 6.233-23.371 10.907c-5.973 4.675-10.387 10.258-13.244 16.749s-4.285 13.634-4.285 21.424c0 12.205 3.246 22.463 9.738 30.772s15.126 15.451 25.903 21.424c10.777 5.973 22.981 11.426 36.615 16.36s27.526 10.128 41.679 15.581c14.152 5.454 28.045 11.751 41.679 18.892s25.773 15.971 36.42 26.487c10.647 10.517 19.216 23.242 25.708 38.173s9.738 32.915 9.738 53.948z"
     id="path4330"
     style="fill:#c14f2f;fill-opacity:1" />
</svg>
